<svg width="500" height="501" viewBox="0 0 500 501" fill="none" xmlns="http://www.w3.org/2000/svg">
<rect y="0.424072" width="500" height="500" rx="250" fill="#C2F902"/>
<path d="M206.524 367.46L289.863 324.381C291.56 323.532 292.719 321.8 292.719 319.799C292.719 317.689 291.432 315.881 289.591 315.091L207.59 272.685C207.252 272.501 206.905 272.326 206.558 272.15C206.553 272.148 206.547 272.146 206.542 272.146V272.146C206.536 272.146 206.53 272.145 206.525 272.143C199.146 268.429 190.786 266.337 181.933 266.337C151.988 266.337 127.712 290.273 127.712 319.799C127.712 349.326 151.98 373.27 181.924 373.27C190.781 373.27 199.143 371.176 206.524 367.46Z" fill="black"/>
<path d="M341.977 204.367C341.977 204.365 341.979 204.363 341.981 204.364C368.795 218.157 379.184 250.732 365.186 277.143C351.187 303.556 318.093 313.778 291.267 299.995L157.147 231.331C130.329 217.539 119.939 184.963 133.946 158.55C147.954 132.137 181.039 121.915 207.856 135.707L341.973 204.369C341.975 204.37 341.977 204.368 341.977 204.367V204.367Z" fill="black"/>
</svg>
